<?xml version="1.0" encoding="UTF-8" standalone="no"?>
<!-- Created with Inkscape (http://www.inkscape.org/) -->

<svg
   width="2000"
   height="2000"
   viewBox="0 0 2000 2000"
   version="1.1"
   id="svg1"
   xmlns="http://www.w3.org/2000/svg"
   xmlns:svg="http://www.w3.org/2000/svg">
  <defs
     id="defs1" />
  <g
     id="layer1"
     transform="translate(289.35138,1250.2425)">
    <path
       id="rect251-3"
       style="fill:#30539c;fill-opacity:1;stroke:none;stroke-width:19.7056"
       d="m 711.20443,-1250.1634 c -5.84367,-0.6874 -11.55532,3.1028 -15.76961,11.5313 l -197.7798,395.56202 c -8.42856,16.85699 -7.58173,45.69409 1.90041,64.65813 l 193.97898,387.95271 c 9.48207,18.96408 23.8997,20.66164 32.3282,3.80468 l 197.78176,-395.56011 c 8.42848,-16.85694 7.57969,-45.696 -1.90235,-64.66008 L 727.76498,-1234.8275 c -4.74107,-9.482 -10.71702,-14.6484 -16.56055,-15.3359 z m 560.73367,781.16129 c -11.6871,0.34373 -23.6389,2.92692 -33.1211,7.66796 l -387.95407,193.97634 c -18.96415,9.48204 -20.66171,23.90157 -3.8047,32.33004 l 395.56347,197.781035 c 16.8571,8.428478 45.6942,7.579699 64.6584,-1.902342 l 387.9541,-193.976333 c 18.9641,-9.48204 20.6616,-23.90156 3.8047,-32.33004 L 1303.4764,-463.236 c -8.4286,-4.21423 -19.852,-6.10935 -31.5392,-5.76562 z m -1124.7996,0.002 c -11.68713,0.34374 -23.63911,2.92499 -33.12118,7.66601 l -387.95426,193.97816 c -18.96414,9.48204 -20.66171,23.89961 -3.8047,32.32809 l 395.56366,197.781114 c 16.85702,8.42848 45.69422,7.579699 64.65837,-1.902342 L 570.4345,-233.12543 c 18.96414,-9.48203 20.66171,-23.90156 3.80469,-32.33004 L 178.67773,-463.23459 c -8.42851,-4.21424 -19.852,-6.10936 -31.53914,-5.76562 z m 564.06588,343.64025 c -5.84357,-0.68748 -11.55532,3.10276 -15.76958,11.53124 L 497.65502,281.73143 c -8.42853,16.85696 -7.58169,45.69405 1.90038,64.65814 l 193.97905,387.95467 c 9.48205,18.96406 23.89964,20.65966 32.32816,3.8027 L 923.64437,342.58683 c 8.42851,-16.85696 7.57972,-45.696 -1.90235,-64.66009 l -193.97705,-387.9527 c -4.74104,-9.48203 -10.71702,-14.64648 -16.56059,-15.33396 z" />
    <path
       id="rect256-74"
       style="fill:#03112b;fill-opacity:1;stroke:none;stroke-width:15.4795"
       d="m 1413.0031,-962.86877 c -2.9881,-0.14132 -6.5089,0.40397 -10.4591,1.72071 l -323.2391,107.74597 c -15.8006,5.26687 -32.2891,20.81436 -36.9708,34.85934 l -109.85963,329.57581 c -4.68168,14.04498 4.2697,21.1106 20.07035,15.84373 l 323.23908,-107.74596 c 15.8006,-5.26687 32.2892,-20.81242 36.9708,-34.85741 l 109.8597,-329.57582 c 3.5113,-10.53373 -0.6473,-17.14242 -9.6113,-17.56637 z m -1404.7067419,0.002 c -8.96401405,0.42394 -13.1206456,7.03263 -9.6094079,17.56643 L 108.54661,-615.72462 c 4.68168,14.04499 21.17014,29.59052 36.97079,34.85739 l 323.2391,107.74598 c 15.80067,5.26686 24.75204,-1.79875 20.07036,-15.84374 L 378.96721,-818.5408 c -4.68168,-14.04498 -21.17014,-29.59247 -36.9708,-34.85934 L 18.757313,-961.14609 c -3.950159,-1.31674 -7.472962,-1.862 -10.4609549,-1.72075 z M 479.21746,-29.084631 c -2.988,-0.141325 -6.51079,0.403981 -10.46096,1.720698 L 145.5174,80.382039 C 129.71675,85.648908 113.22829,101.1964 108.54661,115.24137 L -1.3134721,444.81538 c -4.6816752,14.04498 4.2697024,21.11256 20.0703661,15.84569 L 341.99599,352.91509 c 15.80066,-5.26687 32.29107,-20.81436 36.97275,-34.85933 L 488.826,-11.519918 c 3.51126,-10.533731 -0.64538,-17.140472 -9.6094,-17.564425 z m 462.86644,-1.5e-5 c -8.9641,0.423975 -13.12071,7.032664 -9.60941,17.566395 L 1042.3322,318.05755 c 4.6816,14.045 21.1721,29.59247 36.9726,34.85936 l 323.2372,107.74596 c 15.8008,5.26687 24.7521,-1.80072 20.0704,-15.84568 l -109.8577,-329.5758 c -4.6816,-14.045 -21.1721,-29.590522 -36.9727,-34.857407 L 952.54478,-27.361962 c -3.95008,-1.316743 -7.47294,-1.863978 -10.46088,-1.722684 z" />
  </g>
</svg>
